<mxfile host="app.diagrams.net" modified="2021-08-10T14:57:59.781Z" agent="5.0 (Windows NT 10.0; Win64; x64) AppleWebKit/537.36 (KHTML, like Gecko) Chrome/92.0.4515.131 Safari/537.36" etag="2ZpBWhyPWK7WdrrDR81I" version="14.9.5" type="github">
  <diagram id="2iD1uwLVrEYLkPj4rfC0" name="第 1 页">
    <mxGraphModel dx="1422" dy="772" grid="1" gridSize="10" guides="1" tooltips="1" connect="1" arrows="1" fold="1" page="1" pageScale="1" pageWidth="827" pageHeight="1169" math="0" shadow="0">
      <root>
        <mxCell id="0" />
        <mxCell id="1" parent="0" />
        <mxCell id="YrsrtHYI-QYg7MPrzIgh-7" value="" style="edgeStyle=orthogonalEdgeStyle;rounded=0;orthogonalLoop=1;jettySize=auto;html=1;" edge="1" parent="1" source="YrsrtHYI-QYg7MPrzIgh-1" target="YrsrtHYI-QYg7MPrzIgh-2">
          <mxGeometry relative="1" as="geometry" />
        </mxCell>
        <mxCell id="YrsrtHYI-QYg7MPrzIgh-1" value="开始" style="strokeWidth=2;html=1;shape=mxgraph.flowchart.start_1;whiteSpace=wrap;" vertex="1" parent="1">
          <mxGeometry x="250" y="210" width="190" height="80" as="geometry" />
        </mxCell>
        <mxCell id="YrsrtHYI-QYg7MPrzIgh-8" value="是" style="edgeStyle=orthogonalEdgeStyle;rounded=0;orthogonalLoop=1;jettySize=auto;html=1;" edge="1" parent="1" source="YrsrtHYI-QYg7MPrzIgh-2" target="YrsrtHYI-QYg7MPrzIgh-3">
          <mxGeometry relative="1" as="geometry" />
        </mxCell>
        <mxCell id="YrsrtHYI-QYg7MPrzIgh-13" value="" style="edgeStyle=orthogonalEdgeStyle;rounded=0;orthogonalLoop=1;jettySize=auto;html=1;" edge="1" parent="1" source="YrsrtHYI-QYg7MPrzIgh-2" target="YrsrtHYI-QYg7MPrzIgh-12">
          <mxGeometry relative="1" as="geometry" />
        </mxCell>
        <mxCell id="YrsrtHYI-QYg7MPrzIgh-2" value="注册节点是否在白名单" style="strokeWidth=2;html=1;shape=mxgraph.flowchart.decision;whiteSpace=wrap;" vertex="1" parent="1">
          <mxGeometry x="217.5" y="330" width="255" height="100" as="geometry" />
        </mxCell>
        <mxCell id="YrsrtHYI-QYg7MPrzIgh-9" value="是" style="edgeStyle=orthogonalEdgeStyle;rounded=0;orthogonalLoop=1;jettySize=auto;html=1;" edge="1" parent="1" source="YrsrtHYI-QYg7MPrzIgh-3" target="YrsrtHYI-QYg7MPrzIgh-4">
          <mxGeometry relative="1" as="geometry" />
        </mxCell>
        <mxCell id="YrsrtHYI-QYg7MPrzIgh-14" style="edgeStyle=orthogonalEdgeStyle;rounded=0;orthogonalLoop=1;jettySize=auto;html=1;" edge="1" parent="1" source="YrsrtHYI-QYg7MPrzIgh-3" target="YrsrtHYI-QYg7MPrzIgh-12">
          <mxGeometry relative="1" as="geometry" />
        </mxCell>
        <mxCell id="YrsrtHYI-QYg7MPrzIgh-3" value="注册的集群是否存在" style="strokeWidth=2;html=1;shape=mxgraph.flowchart.decision;whiteSpace=wrap;" vertex="1" parent="1">
          <mxGeometry x="217.5" y="480" width="255" height="100" as="geometry" />
        </mxCell>
        <mxCell id="YrsrtHYI-QYg7MPrzIgh-10" value="是" style="edgeStyle=orthogonalEdgeStyle;rounded=0;orthogonalLoop=1;jettySize=auto;html=1;" edge="1" parent="1" source="YrsrtHYI-QYg7MPrzIgh-4" target="YrsrtHYI-QYg7MPrzIgh-5">
          <mxGeometry relative="1" as="geometry" />
        </mxCell>
        <mxCell id="YrsrtHYI-QYg7MPrzIgh-15" style="edgeStyle=orthogonalEdgeStyle;rounded=0;orthogonalLoop=1;jettySize=auto;html=1;entryX=0;entryY=0.5;entryDx=0;entryDy=0;" edge="1" parent="1" source="YrsrtHYI-QYg7MPrzIgh-4" target="YrsrtHYI-QYg7MPrzIgh-12">
          <mxGeometry relative="1" as="geometry" />
        </mxCell>
        <mxCell id="YrsrtHYI-QYg7MPrzIgh-4" value="服务分组是否存在" style="strokeWidth=2;html=1;shape=mxgraph.flowchart.decision;whiteSpace=wrap;" vertex="1" parent="1">
          <mxGeometry x="217.5" y="630" width="255" height="100" as="geometry" />
        </mxCell>
        <mxCell id="YrsrtHYI-QYg7MPrzIgh-11" value="" style="edgeStyle=orthogonalEdgeStyle;rounded=0;orthogonalLoop=1;jettySize=auto;html=1;" edge="1" parent="1" source="YrsrtHYI-QYg7MPrzIgh-5" target="YrsrtHYI-QYg7MPrzIgh-6">
          <mxGeometry relative="1" as="geometry" />
        </mxCell>
        <mxCell id="YrsrtHYI-QYg7MPrzIgh-5" value="存储" style="rounded=1;whiteSpace=wrap;html=1;" vertex="1" parent="1">
          <mxGeometry x="285" y="780" width="120" height="60" as="geometry" />
        </mxCell>
        <mxCell id="YrsrtHYI-QYg7MPrzIgh-6" value="结束" style="strokeWidth=2;html=1;shape=mxgraph.flowchart.start_1;whiteSpace=wrap;" vertex="1" parent="1">
          <mxGeometry x="250" y="870" width="190" height="80" as="geometry" />
        </mxCell>
        <mxCell id="YrsrtHYI-QYg7MPrzIgh-16" style="edgeStyle=orthogonalEdgeStyle;rounded=0;orthogonalLoop=1;jettySize=auto;html=1;entryX=1;entryY=0.5;entryDx=0;entryDy=0;entryPerimeter=0;" edge="1" parent="1" source="YrsrtHYI-QYg7MPrzIgh-12" target="YrsrtHYI-QYg7MPrzIgh-6">
          <mxGeometry relative="1" as="geometry">
            <Array as="points">
              <mxPoint x="700" y="910" />
            </Array>
          </mxGeometry>
        </mxCell>
        <mxCell id="YrsrtHYI-QYg7MPrzIgh-12" value="抛出异常" style="whiteSpace=wrap;html=1;strokeWidth=2;" vertex="1" parent="1">
          <mxGeometry x="640" y="650" width="120" height="60" as="geometry" />
        </mxCell>
        <mxCell id="YrsrtHYI-QYg7MPrzIgh-17" value="" style="edgeStyle=orthogonalEdgeStyle;rounded=0;orthogonalLoop=1;jettySize=auto;html=1;" edge="1" parent="1" source="YrsrtHYI-QYg7MPrzIgh-18" target="YrsrtHYI-QYg7MPrzIgh-21">
          <mxGeometry relative="1" as="geometry" />
        </mxCell>
        <mxCell id="YrsrtHYI-QYg7MPrzIgh-18" value="开始" style="strokeWidth=2;html=1;shape=mxgraph.flowchart.start_1;whiteSpace=wrap;" vertex="1" parent="1">
          <mxGeometry x="250" y="1160" width="190" height="80" as="geometry" />
        </mxCell>
        <mxCell id="YrsrtHYI-QYg7MPrzIgh-19" value="是" style="edgeStyle=orthogonalEdgeStyle;rounded=0;orthogonalLoop=1;jettySize=auto;html=1;" edge="1" parent="1" source="YrsrtHYI-QYg7MPrzIgh-21" target="YrsrtHYI-QYg7MPrzIgh-24">
          <mxGeometry relative="1" as="geometry" />
        </mxCell>
        <mxCell id="YrsrtHYI-QYg7MPrzIgh-20" value="" style="edgeStyle=orthogonalEdgeStyle;rounded=0;orthogonalLoop=1;jettySize=auto;html=1;" edge="1" parent="1" source="YrsrtHYI-QYg7MPrzIgh-21" target="YrsrtHYI-QYg7MPrzIgh-32">
          <mxGeometry relative="1" as="geometry" />
        </mxCell>
        <mxCell id="YrsrtHYI-QYg7MPrzIgh-21" value="服务分组是否存在" style="strokeWidth=2;html=1;shape=mxgraph.flowchart.decision;whiteSpace=wrap;" vertex="1" parent="1">
          <mxGeometry x="217.5" y="1280" width="255" height="100" as="geometry" />
        </mxCell>
        <mxCell id="YrsrtHYI-QYg7MPrzIgh-22" value="是" style="edgeStyle=orthogonalEdgeStyle;rounded=0;orthogonalLoop=1;jettySize=auto;html=1;entryX=0.5;entryY=0;entryDx=0;entryDy=0;" edge="1" parent="1" source="YrsrtHYI-QYg7MPrzIgh-24" target="YrsrtHYI-QYg7MPrzIgh-33">
          <mxGeometry relative="1" as="geometry">
            <mxPoint x="345" y="1580" as="targetPoint" />
          </mxGeometry>
        </mxCell>
        <mxCell id="YrsrtHYI-QYg7MPrzIgh-23" style="edgeStyle=orthogonalEdgeStyle;rounded=0;orthogonalLoop=1;jettySize=auto;html=1;" edge="1" parent="1" source="YrsrtHYI-QYg7MPrzIgh-24" target="YrsrtHYI-QYg7MPrzIgh-32">
          <mxGeometry relative="1" as="geometry" />
        </mxCell>
        <mxCell id="YrsrtHYI-QYg7MPrzIgh-24" value="注册的集群是否存在" style="strokeWidth=2;html=1;shape=mxgraph.flowchart.decision;whiteSpace=wrap;" vertex="1" parent="1">
          <mxGeometry x="217.5" y="1430" width="255" height="100" as="geometry" />
        </mxCell>
        <mxCell id="YrsrtHYI-QYg7MPrzIgh-30" value="结束" style="strokeWidth=2;html=1;shape=mxgraph.flowchart.start_1;whiteSpace=wrap;" vertex="1" parent="1">
          <mxGeometry x="250" y="1700" width="190" height="80" as="geometry" />
        </mxCell>
        <mxCell id="YrsrtHYI-QYg7MPrzIgh-31" style="edgeStyle=orthogonalEdgeStyle;rounded=0;orthogonalLoop=1;jettySize=auto;html=1;entryX=1;entryY=0.5;entryDx=0;entryDy=0;entryPerimeter=0;" edge="1" parent="1" source="YrsrtHYI-QYg7MPrzIgh-32" target="YrsrtHYI-QYg7MPrzIgh-30">
          <mxGeometry relative="1" as="geometry">
            <Array as="points">
              <mxPoint x="700" y="1740" />
            </Array>
          </mxGeometry>
        </mxCell>
        <mxCell id="YrsrtHYI-QYg7MPrzIgh-32" value="抛出异常" style="whiteSpace=wrap;html=1;strokeWidth=2;" vertex="1" parent="1">
          <mxGeometry x="640" y="1450" width="120" height="60" as="geometry" />
        </mxCell>
        <mxCell id="YrsrtHYI-QYg7MPrzIgh-34" value="" style="edgeStyle=orthogonalEdgeStyle;rounded=0;orthogonalLoop=1;jettySize=auto;html=1;" edge="1" parent="1" source="YrsrtHYI-QYg7MPrzIgh-33" target="YrsrtHYI-QYg7MPrzIgh-30">
          <mxGeometry relative="1" as="geometry" />
        </mxCell>
        <mxCell id="YrsrtHYI-QYg7MPrzIgh-33" value="删除节点" style="rounded=1;whiteSpace=wrap;html=1;" vertex="1" parent="1">
          <mxGeometry x="285" y="1600" width="120" height="60" as="geometry" />
        </mxCell>
      </root>
    </mxGraphModel>
  </diagram>
</mxfile>
